<?xml version="1.0" encoding="utf-8"?>
<!-- Generator: Adobe Illustrator 17.1.0, SVG Export Plug-In . SVG Version: 6.00 Build 0)  -->
<!DOCTYPE svg PUBLIC "-//W3C//DTD SVG 1.1//EN" "http://www.w3.org/Graphics/SVG/1.1/DTD/svg11.dtd">
<svg version="1.1" id="Layer_1" xmlns="http://www.w3.org/2000/svg" xmlns:xlink="http://www.w3.org/1999/xlink" x="0px" y="0px"
	 viewBox="0 0 84 67" enable-background="new 0 0 84 67" xml:space="preserve">
<rect x="8.333" y="11.833" width="67.333" height="43.333"/>
<g>
	<path fill="#FFFFFF" d="M40.15,21.769c0.859,1.193,1.289,2.622,1.289,4.285c0,1.714-0.433,3.091-1.3,4.132
		c-0.484,0.584-1.198,1.117-2.141,1.6c1.431,0.521,2.514,1.346,3.242,2.476s1.093,2.501,1.093,4.113c0,1.663-0.416,3.155-1.25,4.475
		c-0.53,0.876-1.192,1.612-1.987,2.209c-0.897,0.686-1.953,1.155-3.172,1.409c-1.217,0.254-2.539,0.381-3.966,0.381H19.31V18.78
		h13.565C36.298,18.83,38.723,19.827,40.15,21.769z M24.909,23.655v6.189h6.822c1.219,0,2.207-0.232,2.969-0.695
		c0.759-0.463,1.139-1.285,1.139-2.466c0-1.308-0.503-2.171-1.508-2.59c-0.866-0.292-1.973-0.438-3.317-0.438H24.909z M24.909,34.49
		v7.484h6.814c1.217,0,2.165-0.165,2.844-0.495c1.228-0.609,1.844-1.777,1.844-3.504c0-1.46-0.597-2.463-1.788-3.009
		c-0.665-0.305-1.6-0.463-2.804-0.476H24.909z"/>
	<path fill="#FFFFFF" d="M60.467,26.513c1.449,0.649,2.644,1.673,3.588,3.071c0.849,1.233,1.401,2.663,1.654,4.291
		c0.146,0.954,0.205,2.326,0.178,4.12H50.769c0.084,2.082,0.808,3.542,2.171,4.38c0.828,0.521,1.827,0.781,2.993,0.781
		c1.236,0,2.241-0.317,3.012-0.952c0.422-0.343,0.795-0.819,1.117-1.428h5.542c-0.146,1.231-0.817,2.482-2.012,3.751
		c-1.86,2.019-4.462,3.028-7.809,3.028c-2.763,0-5.199-0.851-7.311-2.553s-3.167-4.474-3.167-8.311c0-3.596,0.954-6.352,2.86-8.271
		s4.38-2.879,7.422-2.879C57.393,25.54,59.02,25.864,60.467,26.513z M48.027,20.17h13.54v2.895h-13.54V20.17z M52.348,31.2
		c-0.766,0.792-1.249,1.861-1.446,3.214h9.35c-0.098-1.441-0.581-2.534-1.446-3.28s-1.938-1.119-3.218-1.119
		C54.196,30.015,53.115,30.41,52.348,31.2z"/>
</g>
</svg>
