<?xml version="1.0" encoding="utf-8"?>
<!-- Generator: Adobe Illustrator 17.1.0, SVG Export Plug-In . SVG Version: 6.00 Build 0)  -->
<!DOCTYPE svg PUBLIC "-//W3C//DTD SVG 1.1//EN" "http://www.w3.org/Graphics/SVG/1.1/DTD/svg11.dtd">
<svg version="1.1" id="Layer_1" xmlns="http://www.w3.org/2000/svg" xmlns:xlink="http://www.w3.org/1999/xlink" x="0px" y="0px"
	 viewBox="0 0 84 67" enable-background="new 0 0 84 67" xml:space="preserve">
<rect x="8.333" y="11.958" fill="#A7A9AC" width="67.333" height="43.333"/>
<g>
	<path fill="#FFFFFF" d="M25.53,20.181c0-1.119,0.396-2.074,1.187-2.865c0.792-0.792,1.748-1.189,2.866-1.189
		s2.074,0.396,2.865,1.189c0.792,0.791,1.189,1.746,1.189,2.865s-0.396,2.074-1.189,2.865c-0.791,0.792-1.746,1.189-2.865,1.189
		s-2.074-0.396-2.866-1.189C25.927,22.255,25.53,21.3,25.53,20.181z M26.09,27.309h6.988v22.643H26.09V27.309z"/>
	<path fill="#FFFFFF" d="M38.111,27.309h6.707v3.075h0.095c0.216-0.434,0.527-0.868,0.931-1.304
		c0.404-0.434,0.885-0.823,1.445-1.164c0.559-0.343,1.196-0.622,1.911-0.84c0.713-0.216,1.49-0.326,2.328-0.326
		c1.771,0,3.2,0.273,4.286,0.815c1.088,0.544,1.934,1.299,2.54,2.26c0.605,0.963,1.016,2.097,1.234,3.401
		c0.216,1.304,0.326,2.719,0.326,4.241v12.486h-6.988V38.864c0-0.652-0.025-1.329-0.07-2.027c-0.047-0.7-0.186-1.344-0.419-1.934
		s-0.591-1.071-1.073-1.445c-0.482-0.373-1.172-0.559-2.072-0.559c-0.902,0-1.63,0.163-2.19,0.489
		c-0.559,0.326-0.988,0.762-1.282,1.304c-0.296,0.544-0.489,1.158-0.582,1.841c-0.093,0.684-0.14,1.397-0.14,2.144v11.274h-6.988
		V27.309z"/>
</g>
</svg>
