<?xml version="1.0" encoding="utf-8"?>
<!-- Generator: Adobe Illustrator 16.0.4, SVG Export Plug-In . SVG Version: 6.00 Build 0)  -->
<!DOCTYPE svg PUBLIC "-//W3C//DTD SVG 1.1//EN" "http://www.w3.org/Graphics/SVG/1.1/DTD/svg11.dtd">
<svg version="1.1" id="Layer_1" xmlns="http://www.w3.org/2000/svg" xmlns:xlink="http://www.w3.org/1999/xlink" x="0px" y="0px"
	 width="107.266px" height="239.29px" viewBox="0 0 107.266 239.29" enable-background="new 0 0 107.266 239.29"
	 xml:space="preserve">
<rect width="108" height="240"/>
<g>
	
		<text transform="matrix(1 0 0 1 16.8442 222.7212)" fill="#FFFFFF" font-family="'Novecentowide-Normal'" font-size="7.034" letter-spacing="6">mahoney</text>
	<path fill="#FFFFFF" d="M75.775,153l-9.342,25.531l-17.362-0.281L35.083,152H8v1h0.528c8.304,0,8.472,2.455,8.472,9.191v37.056
		c0,1.294,0,2.489,0,3.59V214h11v-1h-1.141c-7.521,0-8.602-3.693-8.602-13.877L18.07,159.98L44.775,214h9.556l20.09-54.368
		l-0.447,45.155c0,6.973-1.175,9.213-7.208,9.213H66.36l0,0H92v-6.866c0-0.711,0-1.487,0-2.333v-42.225c0-0.846,0-1.621,0-2.332V153
		H75.775z M49.435,179.131l16.769-0.029l-6.782,18.582L49.435,179.131z"/>
</g>
<polygon fill="#EA5706" points="94.695,239.986 108,240 108,226.672 "/>
</svg>
