<?xml version="1.0" encoding="utf-8"?>
<!-- Generator: Adobe Illustrator 17.0.0, SVG Export Plug-In . SVG Version: 6.00 Build 0)  -->
<!DOCTYPE svg PUBLIC "-//W3C//DTD SVG 1.1//EN" "http://www.w3.org/Graphics/SVG/1.1/DTD/svg11.dtd">
<svg version="1.1" id="Layer_1" xmlns="http://www.w3.org/2000/svg" xmlns:xlink="http://www.w3.org/1999/xlink" x="0px" y="0px"
	 width="124px" height="105px" viewBox="0 0 124 105" enable-background="new 0 0 124 105" xml:space="preserve">
<rect x="-1.21" y="-1.295" width="126.56" height="107.59"/>
<path fill="#FFFFFF" d="M121.174,86.834c-0.047-1.035-0.071-2.153-0.071-3.389l-0.118-60.09c0-1.212,0.012-2.33,0.047-3.342
	l-0.012-10.248L97.994,9.812l-13.143,36.24l-24.909,0.024L40.093,9.377L1.417,9.459v0.671l0.894-0.012
	c11.813-0.024,12.378,3.33,12.39,12.908l0.118,52.725c0,1.836-0.035,3.518-0.129,5.059v0.212l0.035,15.696l15.073-0.035v-0.671
	h-1.235c-10.696,0.024-12.249-5.589-12.272-20.085l-0.388-55.678l38.158,76.81l13.602-0.024l28.427-77.622l-0.506,64.079
	c0.012,9.919-1.647,12.931-10.237,12.955h-0.671l0.012,0.671l36.499-0.082L121.174,86.834z M74.85,73.621l-14.378-26.58l24.05-0.094
	L74.85,73.621z"/>
</svg>
