<?xml version="1.0" encoding="utf-8"?>
<!-- Generator: Adobe Illustrator 16.0.4, SVG Export Plug-In . SVG Version: 6.00 Build 0)  -->
<!DOCTYPE svg PUBLIC "-//W3C//DTD SVG 1.1//EN" "http://www.w3.org/Graphics/SVG/1.1/DTD/svg11.dtd">
<svg version="1.1" id="Layer_1" xmlns="http://www.w3.org/2000/svg" xmlns:xlink="http://www.w3.org/1999/xlink" x="0px" y="0px"
	 width="107.266px" height="104.145px" viewBox="0 0 107.266 104.145" enable-background="new 0 0 107.266 104.145"
	 xml:space="preserve">
<path fill="#FFFFFF" d="M76.775,16l-9.342,25.531L50.071,41.25L36.083,15H9v1h0.526C17.832,16,18,18.455,18,25.19v37.057
	c0,1.295,0,2.488,0,3.59V77h11v-1h-1.143c-7.521,0-8.602-3.693-8.602-13.877L19.07,22.98L45.775,77h9.558l20.09-54.369
	l-0.447,45.156C74.975,74.76,73.8,77,67.767,77H67.36l0,0H93v-6.867c0-0.711,0-1.486,0-2.332V25.576c0-0.848,0-1.621,0-2.332V16
	H76.775z M50.435,42.131l16.771-0.029l-6.782,18.582L50.435,42.131z"/>
<line fill="none" stroke="#FFFFFF" stroke-width="0.5" stroke-miterlimit="10" x1="17.518" y1="82.134" x2="93.334" y2="82.134"/>
</svg>
